nColumns=19
nRows=66
DataType=double
version=3
OpenSimVersion=4.1
endheader
time	ground_force_calcn_r_vx	ground_force_calcn_r_vy	ground_force_calcn_r_vz	ground_force_calcn_r_px	ground_force_calcn_r_py	ground_force_calcn_r_pz	ground_force_calcn_r_mx	ground_force_calcn_r_my	ground_force_calcn_r_mz	ground_force_calcn_l_vx	ground_force_calcn_l_vy	ground_force_calcn_l_vz	ground_force_calcn_l_px	ground_force_calcn_l_py	ground_force_calcn_l_pz	ground_force_calcn_l_mx	ground_force_calcn_l_my	ground_force_calcn_l_mz
0.52	-9.70643	22.0334	-4.23776	1.06428	0	-0.301715	-0.0121765	0.0276404	-0.00531617	0	0	0	0	0	0	0	0	0
0.53	-24.1145	77.2213	-10.9812	1.05652	0	-0.313123	-0.658303	2.10807	-0.299777	0	0	0	0	0	0	0	0	0
0.54	-35.0391	212.078	-21.3278	1.05142	0	-0.31229	-0.772641	4.67649	-0.470297	0	0	0	0	0	0	0	0	0
0.55	-28.5372	450.992	-30.8419	1.04238	0	-0.315156	-0.424023	6.70112	-0.458269	0	0	0	0	0	0	0	0	0
0.56	-23.3184	738.884	-30.7058	1.03199	0	-0.320403	-0.233616	7.40251	-0.307626	0	0	0	0	0	0	0	0	0
0.57	-48.88	964.51	-17.4552	1.0263	0	-0.325251	-0.334881	6.60793	-0.119587	0	0	0	0	0	0	0	0	0
0.58	-106.911	1108.25	-0.666763	1.02368	0	-0.329297	-0.450672	4.67169	-0.00281067	0	0	0	0	0	0	0	0	0
0.59	-159.759	1241.75	9.20167	1.01618	0	-0.332921	-0.301106	2.34038	0.0173428	0	0	0	0	0	0	0	0	0
0.6	-175.055	1406.78	14.4081	0.999355	0	-0.335102	-0.0386715	0.310773	0.0031829	0	0	0	0	0	0	0	0	0
0.61	-156.808	1576.26	20.7385	0.977184	0	-0.33566	0.099637	-1.00156	-0.0131774	0	0	0	0	0	0	0	0	0
0.62	-121.284	1705.17	26.5043	0.954654	0	-0.335862	0.102434	-1.44015	-0.022385	0	0	0	0	0	0	0	0	0
0.63	-84.1793	1774.43	28.9136	0.933725	0	-0.336427	0.0537827	-1.1337	-0.0184731	0	0	0	0	0	0	0	0	0
0.64	-48.0446	1789.98	29.8827	0.913113	0	-0.336925	0.0118458	-0.441334	-0.00736783	0	0	0	0	0	0	0	0	0
0.65	-9.93157	1762.33	31.4156	0.891762	0	-0.337289	-0.00112235	0.199158	0.00355024	0	0	0	0	0	0	0	0	0
0.66	30.6447	1696.87	33.7654	0.870289	0	-0.337843	0.00791482	0.438263	0.00872083	0	0	0	0	0	0	0	0	0
0.67	73.2565	1598.96	37.5382	0.848457	0	-0.338661	0.00612895	0.133775	0.0031406	0	0	0	0	0	0	0	0	0
0.68	115.615	1472.93	42.8411	0.825637	0	-0.339838	-0.0479653	-0.611078	-0.0177736	0	0	0	0	0	0	0	0	0
0.69	150.006	1320.3	48.0398	0.802686	0	-0.341503	-0.171002	-1.5051	-0.0547638	0	0	0	0	0	0	0	0	0
0.7	172.828	1146.08	50.6366	0.780104	0	-0.343605	-0.332189	-2.20285	-0.0973277	0	0	0	0	0	0	0	0	0
0.71	185.061	959.796	49.3927	0.757149	0	-0.345734	-0.471861	-2.44725	-0.12594	0	0	0	0	0	0	0	0	0
0.72	183.943	772.965	45.1736	0.733998	0	-0.347255	-0.514595	-2.16243	-0.126377	0	0	0	0	0	0	0	0	0
0.73	166.977	597.616	39.3406	0.711892	0	-0.347874	-0.407452	-1.45828	-0.0959974	0	0	0	0	0	0	0	0	0
0.74	140.483	443.696	32.5381	0.69123	0	-0.347873	-0.174121	-0.549935	-0.040329	0	0	0	0	0	0	0	0	0
0.75	113.331	315.919	25.4882	0.671988	0	-0.346984	0.114166	0.318249	0.0256761	0	0	0	0	0	0	0	0	0
0.76	88.5608	213.903	19.2182	0.655898	0	-0.343642	0.384826	0.92948	0.0835095	0	0	0	0	0	0	0	0	0
0.77	65.127	134.82	13.9437	0.644558	0	-0.336385	0.564278	1.16812	0.120812	0	0	0	0	0	0	0	0	0
0.78	42.4243	76.0731	9.24917	0.639934	0	-0.325296	0.593545	1.06432	0.129402	0	0	0	0	0	0	0	0	0
0.79	22.4242	36.7365	5.2975	0.654488	0	-0.309179	0.46883	0.768061	0.110756	0	0	0	0	0	0	0	0	0
0.8	8.51111	14.9409	2.66885	0.719006	0	-0.281999	0.261512	0.459075	0.0820029	0	0	0	0	0	0	0	0	0
0.81	0	0	0	0	0	0	0	0	0	0	0	0	0	0	0	0	0	0
0.82	0	0	0	0	0	0	0	0	0	0	0	0	0	0	0	0	0	0
0.83	0	0	0	0	0	0	0	0	0	0	0	0	0	0	0	0	0	0
0.84	0	0	0	0	0	0	0	0	0	0	0	0	0	0	0	0	0	0
0.85	0	0	0	0	0	0	0	0	0	0	0	0	0	0	0	0	0	0
0.86	0	0	0	0	0	0	0	0	0	0	0	0	0	0	0	0	0	0
0.87	0	0	0	0	0	0	0	0	0	-6.00959	15.0225	0.913313	1.04474	0	-0.369345	-0.346459	0.866062	0.0526535
0.88	0	0	0	0	0	0	0	0	0	-20.3545	56.3504	3.44661	1.09538	0	-0.371981	0.239756	-0.663752	-0.0405977
0.89	0	0	0	0	0	0	0	0	0	-40.1115	172.286	10.1344	1.10954	0	-0.379294	0.699053	-3.00255	-0.17662
0.9	0	0	0	0	0	0	0	0	0	-50.4343	403.1	22.2706	1.10725	0	-0.37942	0.688296	-5.50126	-0.303935
0.91	0	0	0	0	0	0	0	0	0	-58.2336	715.117	35.2185	1.09982	0	-0.37383	0.584426	-7.17683	-0.35345
0.92	0	0	0	0	0	0	0	0	0	-88.1643	978.28	37.387	1.09559	0	-0.368315	0.672763	-7.46505	-0.285292
0.93	0	0	0	0	0	0	0	0	0	-141.307	1115.9	23.1784	1.09276	0	-0.367938	0.809744	-6.39455	-0.132821
0.94	0	0	0	0	0	0	0	0	0	-201.114	1204.14	5.42394	1.08538	0	-0.37101	0.762673	-4.56641	-0.0205689
0.95	0	0	0	0	0	0	0	0	0	-233.043	1344.87	0.256856	1.06855	0	-0.370795	0.480934	-2.77542	-0.000530078
0.96	0	0	0	0	0	0	0	0	0	-216.74	1532.04	5.23657	1.0441	0	-0.368298	0.20733	-1.46552	-0.00500921
0.97	0	0	0	0	0	0	0	0	0	-173.736	1684.97	8.29553	1.02011	0	-0.367796	0.073767	-0.715426	-0.00352221
0.98	0	0	0	0	0	0	0	0	0	-137.453	1759.6	7.16327	0.999904	0	-0.369091	0.0310116	-0.396994	-0.00161615
0.99	0	0	0	0	0	0	0	0	0	-106.92	1769.91	6.4254	0.980226	0	-0.370243	0.0157245	-0.260297	-0.00094497
1	0	0	0	0	0	0	0	0	0	-71.984	1735.49	7.31887	0.959548	0	-0.371167	0.000240898	-0.0058079	-2.4493e-05
1.01	0	0	0	0	0	0	0	0	0	-36.0545	1664.86	8.31881	0.939261	0	-0.372357	-0.014055	0.649009	0.0032429
1.02	0	0	0	0	0	0	0	0	0	5.29319	1570.99	7.34673	0.918426	0	-0.373277	0.00634599	1.88346	0.00880798
1.03	0	0	0	0	0	0	0	0	0	54.5855	1458.83	2.66587	0.89555	0	-0.373235	0.137652	3.67882	0.00672271
1.04	0	0	0	0	0	0	0	0	0	99.2283	1322.45	-5.62842	0.871951	0	-0.372233	0.432945	5.77001	-0.0245574
1.05	0	0	0	0	0	0	0	0	0	130.072	1164.25	-15.5388	0.849194	0	-0.370715	0.861045	7.70709	-0.102863
1.06	0	0	0	0	0	0	0	0	0	148.08	996.417	-23.7745	0.827192	0	-0.368943	1.3381	9.00394	-0.214834
1.07	0	0	0	0	0	0	0	0	0	154.473	828.123	-27.2677	0.80591	0	-0.366849	1.73914	9.32347	-0.306996
1.08	0	0	0	0	0	0	0	0	0	149.339	665.201	-25.8233	0.78541	0	-0.364523	1.93319	8.61099	-0.334282
1.09	0	0	0	0	0	0	0	0	0	134.284	514.087	-21.8885	0.76509	0	-0.363073	1.85254	7.09218	-0.301967
1.1	0	0	0	0	0	0	0	0	0	113.563	382.472	-16.9377	0.744513	0	-0.363379	1.53214	5.16016	-0.228516
1.11	0	0	0	0	0	0	0	0	0	91.0015	274.115	-10.9314	0.725436	0	-0.364353	1.07661	3.24297	-0.129326
1.12	0	0	0	0	0	0	0	0	0	69.9688	186.293	-5.01373	0.708942	0	-0.364364	0.628947	1.67458	-0.0450682
1.13	0	0	0	0	0	0	0	0	0	50.3144	115.275	-1.1389	0.697928	0	-0.363371	0.284214	0.651163	-0.00643335
1.14	0	0	0	0	0	0	0	0	0	31.1158	61.9068	0.361028	0.700758	0	-0.359229	0.0907035	0.18046	0.00105241
1.15	0	0	0	0	0	0	0	0	0	14.7118	27.9908	0.732713	0.750376	0	-0.343654	0.0466885	0.08883	0.00232529
1.16	0	0	0	0	0	0	0	0	0	4.50628	11.4324	1.04589	0.953209	0	-0.288407	0.0620863	0.157512	0.0144099
1.17	0	0	0	0	0	0	0	0	0	0	0	0	0	0	0	0	0	0
